<?xml version="1.0" encoding="UTF-8"?>
<svg version="1.1" xmlns="http://www.w3.org/2000/svg" width="1254" height="1254">
<path d="M0 0 C0.66 0 1.32 0 2 0 C3.65910423 4.22981263 5.31291878 8.46164373 6.9621582 12.6953125 C7.52228154 14.13108085 8.08377127 15.56631701 8.64672852 17.00097656 C11.46298617 24.18055607 14.20399445 31.31671614 16.30493164 38.74560547 C17.02331332 41.07561477 17.90446224 43.2694343 18.8515625 45.515625 C21.94806845 53.06133656 24.08508346 60.93157206 26.375 68.75 C26.86589067 70.41579392 27.35685802 72.08156525 27.84790039 73.74731445 C33.12711935 91.70113479 38.30661729 109.64295087 42 128 C42.22155762 129.09973145 42.44311523 130.19946289 42.67138672 131.33251953 C46.87589078 152.45053294 50.20821005 173.65048657 53 195 C53.1119873 195.84965332 53.22397461 196.69930664 53.33935547 197.57470703 C54.21539712 204.74860404 54.36576935 211.95816607 54.60546875 219.17578125 C54.64285156 220.16964844 54.68023438 221.16351563 54.71875 222.1875 C54.74904297 223.08855469 54.77933594 223.98960937 54.81054688 224.91796875 C54.77497586 226.988349 54.77497586 226.988349 56 228 C56.10437043 229.82268901 56.1385477 231.64943522 56.14526367 233.47509766 C56.15483345 235.2342601 56.15483345 235.2342601 56.16459656 237.02896118 C56.16626579 238.95208633 56.16626579 238.95208633 56.16796875 240.9140625 C56.17129715 242.23103119 56.17462555 243.54799988 56.17805481 244.90487671 C56.1840612 247.70775162 56.18589376 250.51059567 56.18530273 253.31347656 C56.18520237 256.86227049 56.19871511 260.41085859 56.21607494 263.95960426 C56.22735062 266.71730404 56.22921706 269.47495702 56.22869301 272.23267746 C56.23041279 274.16372928 56.24117589 276.09476648 56.25224304 278.02578735 C56.23275055 285.73569068 55.60669837 293.119276 54.47746277 300.72886658 C53.95103382 304.33547098 53.61181782 307.93113237 53.31762695 311.56225586 C51.00839454 340.03693544 44.93696944 368.85590341 36 396 C35.65598145 397.04978027 35.31196289 398.09956055 34.95751953 399.18115234 C29.69632816 415.10934895 24.03065366 430.75452461 17 446 C16.30753174 447.50820313 16.30753174 447.50820313 15.60107422 449.046875 C-3.29872355 489.95174908 -29.04481074 526.23539824 -60.90136719 558.08666992 C-62.3720641 559.55955972 -63.83453534 561.04030265 -65.296875 562.52148438 C-71.52786505 568.78943251 -78.05480436 574.525869 -85 580 C-86.18030023 580.95366924 -87.3600858 581.90797628 -88.5390625 582.86328125 C-119.60176544 607.51684421 -154.17828825 626.36147559 -191 641 C-192.21067139 641.48774902 -192.21067139 641.48774902 -193.44580078 641.98535156 C-220.70185264 652.87828988 -249.33281738 659.98690958 -278 666 C-278.99435059 666.20864685 -278.99435059 666.20864685 -280.00878906 666.42150879 C-287.56738475 667.99652334 -295.09621844 669.37259254 -302.75 670.375 C-328.76699822 674.06760523 -354.507827 682.50825008 -373 702 C-373.79470703 702.72896484 -373.79470703 702.72896484 -374.60546875 703.47265625 C-394.36171471 721.92054155 -400.8160929 750.76741449 -402.13623047 776.67333984 C-402.30587422 782.12406732 -402.20844736 787.55200012 -402 793 C-401.97921387 793.68465332 -401.95842773 794.36930664 -401.93701172 795.07470703 C-401.41383999 811.13026604 -398.51536204 826.61499626 -394 842 C-393.7421875 842.95519531 -393.484375 843.91039062 -393.21875 844.89453125 C-392.482595 847.6053016 -392.482595 847.6053016 -391 851 C-383.64546408 854.35280314 -372.58916936 851.31158605 -365 850.25 C-363.70288086 850.06953125 -362.40576172 849.8890625 -361.06933594 849.703125 C-353.07173282 848.54887308 -345.32537635 847.12942464 -337.54296875 844.97265625 C-333.90345124 843.97349433 -330.25614942 843.21058941 -326.5625 842.4375 C-264.06058137 828.29926931 -203.57630768 795.26145433 -155 754 C-153.85950089 753.04542249 -152.71886729 752.09100564 -151.578125 751.13671875 C-145.17365621 745.74598144 -139.06731282 740.21922355 -133.21875 734.21875 C-131.25695665 732.25695665 -129.25160684 730.46548277 -127.125 728.6875 C-121.7690535 724.09978017 -117.14373156 718.80178423 -112.42675781 713.57519531 C-111.16688656 712.18424916 -109.89306719 710.80596428 -108.6171875 709.4296875 C-102.84092818 703.15654566 -97.60620827 696.52773772 -92.39404297 689.78808594 C-91.06050511 688.0776076 -89.70873646 686.38391999 -88.34765625 684.6953125 C-75.49312133 668.70119071 -64.25003097 651.76294501 -54 634 C-53.60506348 633.32050293 -53.21012695 632.64100586 -52.80322266 631.94091797 C-50.13129559 627.33187271 -47.54285154 622.68139175 -45 618 C-44.54657227 617.16694336 -44.09314453 616.33388672 -43.62597656 615.47558594 C-34.42333418 598.46575864 -26.1073602 581.0864069 -19.3359375 562.95703125 C-18.90104004 561.79405518 -18.46614258 560.6310791 -18.01806641 559.43286133 C-17.19919841 557.21605292 -16.39564065 554.99350098 -15.61083984 552.7644043 C-13.06029588 545.79767141 -9.87176915 540.57628518 -5 535 C-4.50274414 534.40638672 -4.00548828 533.81277344 -3.49316406 533.20117188 C-2.0951455 531.53589925 -0.67635766 529.89103095 0.75 528.25 C1.79592829 527.03806703 2.84149308 525.82582025 3.88671875 524.61328125 C4.40669434 524.01080566 4.92666992 523.40833008 5.46240234 522.78759766 C7.84498209 520.01763117 10.204936 517.22876081 12.5625 514.4375 C13.00988525 513.90833984 13.45727051 513.37917969 13.91821289 512.83398438 C16.23214572 510.09611538 18.54285624 507.35555846 20.8515625 504.61328125 C23.55780345 501.4003734 26.27841756 498.19992117 29 495 C29.76828125 494.0821875 30.5365625 493.164375 31.328125 492.21875 C32.02421875 491.4040625 32.7203125 490.589375 33.4375 489.75 C34.03433594 489.04359375 34.63117187 488.3371875 35.24609375 487.609375 C37.18187746 485.83311022 38.40485157 485.2865132 41 485 C43.20997921 487.20997921 42.3125 492.51394743 42.3125 495.55566406 C41.38688723 547.53723549 13.31098585 606.74323167 -13 651 C-13.50966309 651.8657666 -14.01932617 652.7315332 -14.54443359 653.62353516 C-28.7293168 677.64449848 -44.25506615 700.90310156 -62.48828125 722.0546875 C-64.70776527 724.65731728 -66.83467469 727.30318073 -68.9375 730 C-73.47905369 735.72791874 -78.46802757 741.01603133 -83.4609375 746.34765625 C-85.45938409 748.49319662 -87.43284858 750.6608362 -89.40576172 752.82983398 C-95.53449283 759.56165266 -101.74940681 765.99636509 -108.65625 771.93359375 C-110.97733187 773.98001426 -113.23254695 776.08792689 -115.48461914 778.2097168 C-122.07067011 784.39388045 -128.92939815 790.04285246 -136.1015625 795.52978516 C-138.06708434 797.0519524 -140.00370617 798.6057315 -141.9375 800.16796875 C-166.0555354 819.52456424 -192.82915832 836.63519121 -220.75976562 849.92041016 C-223.35931916 851.17315925 -225.93654176 852.46736214 -228.515625 853.76171875 C-252.12607264 865.50121511 -276.74814772 874.47860162 -302 882 C-302.98871094 882.2985791 -303.97742188 882.5971582 -304.99609375 882.90478516 C-351.02106659 896.6329752 -398.16221906 901.27905991 -446 900 C-446.74096924 899.98066406 -447.48193848 899.96132812 -448.24536133 899.94140625 C-469.82478431 899.33827809 -490.83542745 895.99517293 -512 892 C-513.27182129 891.76265137 -514.54364258 891.52530273 -515.85400391 891.28076172 C-539.68840213 886.74956818 -562.81377868 879.73661604 -585.42919922 870.97631836 C-587.45459325 870.20713026 -589.48959195 869.46323147 -591.52783203 868.72875977 C-601.40469468 865.15355028 -610.83196597 860.95414387 -620.25 856.3125 C-620.96711151 855.96140167 -621.68422302 855.61030334 -622.42306519 855.24856567 C-649.35573105 842.05680445 -675.0036435 827.04830584 -699 809 C-699.72268066 808.46133301 -700.44536133 807.92266602 -701.18994141 807.36767578 C-714.53963444 797.40640982 -727.12535666 786.75734692 -739.33984375 775.44140625 C-741.50518706 773.45412347 -743.69844755 771.52749342 -745.9375 769.625 C-753.84301229 762.76142762 -761.31338309 755.18630264 -768.078125 747.19921875 C-769.65909755 745.39009772 -771.27032272 743.63824139 -772.921875 741.89453125 C-779.93886667 734.48415164 -786.41877712 726.87002305 -792.62304688 718.77099609 C-794.00954819 716.9877194 -795.42713117 715.23497915 -796.859375 713.48828125 C-823 681.56421678 -823 681.56421678 -823 674 C-817.66085691 674.46611567 -813.8583852 677.39161637 -809.5 680.25 C-807.78570389 681.35241457 -806.07084017 682.45394688 -804.35546875 683.5546875 C-803.47036621 684.12541992 -802.58526367 684.69615234 -801.67333984 685.28417969 C-789.94543882 692.81145716 -778.03658549 700.04091717 -766 707.0625 C-764.99976807 707.64668701 -763.99953613 708.23087402 -762.96899414 708.83276367 C-758.08860189 711.66981514 -753.18941663 714.45930843 -748.234375 717.1640625 C-737.84674938 722.86635729 -729.33645724 728.55597557 -721 737 C-719.65879349 738.20211843 -718.30576151 739.39126815 -716.9375 740.5625 C-713.85424721 743.22789923 -710.86357758 745.97893171 -707.875 748.75 C-647.25867625 803.87842613 -551.50413361 854.14389224 -468 853 C-468.6290625 851.87464844 -469.258125 850.74929688 -469.90625 849.58984375 C-472.16750141 845.53841648 -474.41746877 841.48084349 -476.66162109 837.41992188 C-477.49835611 835.90702193 -478.3369223 834.39513162 -479.17822266 832.88476562 C-480.23152505 830.99023515 -481.27348263 829.08989376 -482.3125 827.1875 C-482.90675781 826.10855469 -483.50101563 825.02960937 -484.11328125 823.91796875 C-486.33557712 819.55550663 -487.97793696 814.96908742 -489.70336914 810.39331055 C-490.90699159 807.24340499 -492.1700498 804.12958451 -493.47265625 801.01953125 C-505.21059901 772.95525946 -514.71539934 744.22264058 -523.83691406 715.21582031 C-527.03191085 705.06641059 -530.30242159 694.97882039 -534 685 C-534.2777124 684.24605957 -534.5554248 683.49211914 -534.84155273 682.71533203 C-535.5489104 680.80544011 -536.2737912 678.9028067 -537 677 C-537.391875 675.95714844 -537.78375 674.91429687 -538.1875 673.83984375 C-538.620625 672.69644531 -539.05375 671.55304687 -539.5 670.375 C-539.9021875 669.31023438 -540.304375 668.24546875 -540.71875 667.1484375 C-541.95913596 663.98300689 -541.95913596 663.98300689 -543.51953125 660.96875 C-544.96863138 658.06290278 -546.0890678 655.17840358 -547.1875 652.125 C-549.95881299 644.81503969 -553.40675465 637.96218431 -556.97802734 631.02197266 C-557.95202411 629.09492028 -558.88351048 627.1538007 -559.80078125 625.19921875 C-568.75573065 606.28082496 -580.69832413 589.10162714 -594 573 C-594.5451123 572.33919434 -595.09022461 571.67838867 -595.65185547 570.99755859 C-606.64723278 557.77602198 -618.45734384 545.62492942 -632 535 C-633.1297105 534.07156748 -634.25719226 533.14041854 -635.3828125 532.20703125 C-649.58630876 520.49910614 -664.81468718 510.73213062 -681 502 C-681 501.34 -681 500.68 -681 500 C-682.01126953 499.87238281 -682.01126953 499.87238281 -683.04296875 499.7421875 C-686.81389533 498.7957198 -689.95201803 497.01558726 -693.3125 495.125 C-698.46874809 492.29675944 -703.44042266 489.94585207 -709 488 C-710.6496149 487.24274854 -712.29361693 486.47321681 -713.93359375 485.6953125 C-720.09424607 482.87673004 -726.37958752 480.67188927 -732.8125 478.5625 C-733.97434814 478.17779541 -735.13619629 477.79309082 -736.33325195 477.39672852 C-747.11989625 473.8717823 -758.0136954 470.83266701 -769 468 C-768.39865234 468.2902002 -767.79730469 468.58040039 -767.17773438 468.87939453 C-751.34685517 476.55850771 -736.04357292 484.87590055 -721 494 C-719.71005127 494.78141357 -719.71005127 494.78141357 -718.39404297 495.57861328 C-681.29185558 518.19764228 -643.7000612 547.43251745 -617 582 C-616.0772603 583.13659063 -615.15125053 584.27053127 -614.22265625 585.40234375 C-597.55114622 605.78678213 -583.46174412 627.8268714 -571 651 C-570.59620117 651.74588379 -570.19240234 652.49176758 -569.77636719 653.26025391 C-563.36282631 665.12094681 -557.62337973 676.85772723 -553.203125 689.62890625 C-551.85736192 693.3996645 -550.32783709 697.06240527 -548.69921875 700.71875 C-547.83237407 703.54689131 -547.88593235 706.05958954 -548 709 C-554.97061458 708.60167917 -561.28894905 707.98845954 -568 706 C-576.37327318 704.84253106 -584.80190811 704.83752915 -593.23828125 704.7890625 C-594.60801435 704.7760296 -595.97774013 704.76220653 -597.34745789 704.74765015 C-603.08825966 704.68716107 -608.82904453 704.63284099 -614.57006836 704.59863281 C-661.32666166 704.30481634 -661.32666166 704.30481634 -681.08206177 699.45117188 C-683.85723055 698.79834683 -686.65952058 698.38994342 -689.4765625 697.96240234 C-698.21537117 696.62880765 -706.59172506 694.76503941 -715 692 C-715.95503418 691.68756348 -716.91006836 691.37512695 -717.89404297 691.05322266 C-742.54482541 682.91835255 -742.54482541 682.91835255 -754.13037109 676.95849609 C-756.22827053 675.88297335 -758.34260681 674.84341896 -760.45703125 673.80078125 C-782.47814727 662.76076507 -802.21431816 647.97493851 -820 631 C-820.80179688 630.23945312 -821.60359375 629.47890625 -822.4296875 628.6953125 C-827.253364 624.00516338 -831.57384723 619.03849263 -835.76953125 613.78125 C-837.17531257 612.02833178 -838.6071276 610.29568625 -840.07421875 608.59375 C-852.39020682 594.20612623 -862.24270099 577.73843633 -871 561 C-871.34192383 560.35321289 -871.68384766 559.70642578 -872.03613281 559.04003906 C-874.46985783 554.41193297 -876.76935511 549.72909172 -879 545 C-879.37592285 544.20658203 -879.7518457 543.41316406 -880.13916016 542.59570312 C-888.26413477 525.23493052 -894.25270687 507.25105541 -900 489 C-900.31984863 487.99163086 -900.63969727 486.98326172 -900.96923828 485.94433594 C-910.62662492 455.1408906 -915.27125341 422.70959409 -918.8125 390.6875 C-918.9364917 389.58011475 -919.0604834 388.47272949 -919.18823242 387.33178711 C-919.9278661 380.19870979 -920.1373566 373.16905061 -920 366 C-915.26891951 366.59319358 -911.22328931 368.00708485 -906.875 369.875 C-900.32886979 372.56859635 -893.93322261 374.51484252 -887 376 C-885.30067236 376.39406198 -883.60146501 376.78864286 -881.90234375 377.18359375 C-866.36621442 380.70115815 -850.85757766 382.62283555 -835 384 C-833.92524414 384.0937793 -832.85048828 384.18755859 -831.74316406 384.28417969 C-820.34415962 385.25602463 -808.93503715 386.01422156 -797.51538086 386.69604492 C-767.31705209 388.50369623 -737.73353962 391.24303199 -708 397 C-706.93330078 397.20351074 -705.86660156 397.40702148 -704.76757812 397.61669922 C-647.33965162 408.81109524 -592.05441789 438.05824372 -558.71264648 487.19018555 C-549.18041337 501.42886926 -540.95995208 515.84252524 -535 531.9375 C-534.7525 532.60201172 -534.505 533.26652344 -534.25 533.95117188 C-533.74909488 535.29604995 -533.24909792 536.64126661 -532.75 537.98681641 C-532.25383162 539.31865379 -531.75388699 540.64909102 -531.25 541.97802734 C-525.83313174 556.27136527 -520.72607473 570.75300658 -519 586 C-518.67 586.33 -518.34 586.66 -518 587 C-513.37836342 608.62884188 -510.74771663 631.13100018 -511.0859375 653.234375 C-511.30322309 674.57405132 -507.25109954 691.85826687 -499.31274414 711.66137695 C-498.09853715 714.74939641 -497.03410876 717.84811085 -496 721 C-489.07600827 740.33063654 -481.62571518 759.35751909 -473 778 C-472.28094482 779.56355225 -472.28094482 779.56355225 -471.54736328 781.15869141 C-463.23465158 799.14627033 -454.57235744 817.36880307 -442.42578125 833.13671875 C-441 835 -441 835 -440 837 C-440.07001221 835.75524902 -440.14002441 834.51049805 -440.2121582 833.22802734 C-440.88370761 820.68036329 -441.18633503 808.16377388 -441.18530273 795.59863281 C-441.18749385 792.63331824 -441.20577074 789.66837472 -441.22460938 786.703125 C-441.47669287 700.44255451 -410.61734259 614.15446729 -353 508 C-352.3915625 506.99598145 -351.783125 505.99196289 -351.15625 504.95751953 C-331.09749468 472.02250592 -308.10586327 439.87553431 -282.109375 411.32421875 C-280.25373343 409.27957665 -278.43243624 407.21215851 -276.625 405.125 C-272.37793458 400.25593873 -268.00366871 395.50459137 -263.6217804 390.75721741 C-262.5684977 389.61597369 -261.51580048 388.47418924 -260.46379089 387.33177185 C-251.8837236 378.02471065 -243.10364104 368.94484443 -234.13867188 360.00830078 C-232.10167579 357.976738 -230.07018049 355.93978164 -228.0390625 353.90234375 C-226.71646683 352.58040793 -225.39356151 351.25878183 -224.0703125 349.9375 C-223.47743439 349.34259766 -222.88455627 348.74769531 -222.27371216 348.13476562 C-218.55072355 344.43219178 -214.70082825 340.92638553 -210.72116089 337.50097656 C-208.71791178 335.7539987 -206.84588599 333.91181049 -205 332 C-201.7784145 328.72797872 -198.41407855 325.70683945 -194.93359375 322.71484375 C-193.04505403 321.03995701 -191.26844352 319.30052413 -189.5 317.5 C-186.57613012 314.53023979 -183.51418446 311.79493621 -180.359375 309.07421875 C-177.40135411 306.47370701 -174.51313607 303.80262564 -171.625 301.125 C-164.9144587 294.90849221 -158.17000758 288.7336852 -151.25 282.75 C-146.82573878 278.90125244 -142.55141078 274.89257932 -138.27441406 270.88183594 C-135.24581683 268.05019255 -132.18404431 265.27094968 -129.0546875 262.55078125 C-124.9940632 259.01704104 -121.04661052 255.37435267 -117.125 251.6875 C-116.08182617 250.70910156 -116.08182617 250.70910156 -115.01757812 249.7109375 C-110.31482656 245.28327726 -105.73165922 240.761919 -101.1953125 236.1640625 C-97.93292005 232.9481098 -94.48910395 229.9650227 -91 227 C-98.56822248 231.75855436 -106.03010562 236.6630264 -113.45114136 241.64694214 C-129.13154056 252.17265504 -129.13154056 252.17265504 -136.9375 256.9375 C-173.84569443 279.55897712 -209.85907091 305.46758469 -243.265625 332.94921875 C-246.83748837 335.88351377 -250.47385914 338.72794083 -254.125 341.5625 C-263.94261329 349.21639051 -273.32210433 357.38795322 -282.5234375 365.76953125 C-283.90663661 367.01528313 -285.29581404 368.25474867 -286.7063446 369.46946716 C-291.70712711 373.77971653 -296.45006885 378.2895679 -301.12109375 382.953125 C-301.86529068 383.69399353 -302.60948761 384.43486206 -303.37623596 385.19818115 C-304.93971072 386.75662609 -306.50186309 388.31639872 -308.06274414 389.87744141 C-310.42248384 392.23499773 -312.79010929 394.58443286 -315.15820312 396.93359375 C-322.16033412 403.90978238 -329.00660352 410.82876131 -335.11108398 418.61499023 C-337.02212447 421.02793511 -339.03238788 423.30394366 -341.1015625 425.58203125 C-345.14344453 430.08289988 -348.77990804 434.82606862 -352.375 439.6875 C-353.0249292 440.56108154 -353.6748584 441.43466309 -354.34448242 442.3347168 C-359.65532868 449.49189911 -364.91628831 456.67945516 -370 464 C-370.37866211 464.54269531 -370.75732422 465.08539062 -371.14746094 465.64453125 C-385.54021348 486.38952817 -397.73030851 508.43496244 -409 531 C-409.41942871 531.83096191 -409.83885742 532.66192383 -410.27099609 533.51806641 C-424.86852647 562.5701969 -436.21659077 593.71838241 -445 625 C-445.66 625 -446.32 625 -447 625 C-482.17931888 543.04033908 -498.41545772 451.75946019 -464.70581055 366.30517578 C-460.88527396 356.93127756 -456.67204625 347.79041529 -451.95751953 338.83398438 C-451.02149138 337.0411635 -450.11773567 335.23161022 -449.21484375 333.421875 C-439.57910219 314.33444828 -426.80831669 296.20239301 -412.30078125 280.51171875 C-410.44850988 278.48962963 -408.65717579 276.438941 -406.87109375 274.359375 C-402.3792413 269.21390004 -397.57634236 264.39232457 -392.75 259.5625 C-391.87214844 258.67240234 -390.99429688 257.78230469 -390.08984375 256.86523438 C-384.04103392 250.80314019 -377.6923369 245.33543667 -371 240 C-369.93794786 239.11243633 -368.87958252 238.22040199 -367.828125 237.3203125 C-311.60715174 189.44730193 -240.75153963 158.59320761 -172.33984375 132.4453125 C-166.99299338 130.39797287 -161.70328051 128.24658219 -156.4375 126 C-154.80347056 125.30709084 -153.16935606 124.61438224 -151.53515625 123.921875 C-150.37137451 123.4278418 -150.37137451 123.4278418 -149.18408203 122.92382812 C-146.25383867 121.68438694 -143.31483659 120.4664841 -140.375 119.25 C-132.89548167 116.13353403 -125.57055261 112.84829006 -118.359375 109.1484375 C-116 108 -116 108 -113.6796875 107.09375 C-95.11011806 99.5143339 -77.44453498 87.68486823 -62 75 C-61.44538086 74.55221191 -60.89076172 74.10442383 -60.31933594 73.64306641 C-36.53730783 54.36957489 -17.95559393 29.41589002 -2.35546875 3.23828125 C-1 1 -1 1 0 0 Z " fill="#FCC404" transform="translate(1060,231)"/>
<path d="M0 0 C1.17193909 0.00059418 2.34387817 0.00118835 3.55133057 0.00180054 C16.0253479 0.02597287 28.44342318 0.14940745 40.875 1.25 C40.875 1.91 40.875 2.57 40.875 3.25 C41.54619873 3.220271 42.21739746 3.19054199 42.90893555 3.15991211 C52.04361831 2.94036149 60.73007231 4.25187048 69.6875 5.8125 C70.47023285 5.94660278 71.2529657 6.08070557 72.05941772 6.21887207 C140.9440628 18.05886947 208.54395749 43.18461111 264.875 85.25 C266.33292969 86.31541016 266.33292969 86.31541016 267.8203125 87.40234375 C279.77665192 96.21815135 291.29562011 105.57020236 302.15234375 115.7109375 C304.67050147 118.05929119 307.23141317 120.34635191 309.8125 122.625 C318.08162192 130.05387244 326.15346335 137.89995637 333.30859375 146.41796875 C334.44664094 147.7490015 335.63362465 149.03866919 336.84765625 150.30078125 C337.49605469 150.98527344 338.14445313 151.66976562 338.8125 152.375 C339.69228516 153.27605469 339.69228516 153.27605469 340.58984375 154.1953125 C342.4058537 157.09872051 342.36877197 158.88376328 341.875 162.25 C335.88383919 171.05728248 324.895001 177.90999967 314.875 181.25 C310.62611801 181.99541789 308.29496321 182.19747545 304.65625 179.76953125 C301.95039917 177.36583376 299.40326316 174.83643987 296.875 172.25 C295.64587934 171.01818464 294.41532161 169.7878021 293.18359375 168.55859375 C291.20870143 166.58518241 289.23542123 164.61032427 287.26782227 162.62963867 C282.95707541 158.29591866 278.56670498 154.17022003 273.875 150.25 C272.53888672 149.08017578 272.53888672 149.08017578 271.17578125 147.88671875 C256.41611601 135.02645891 240.32237234 123.83063049 223.875 113.25 C223.18180664 112.80092285 222.48861328 112.3518457 221.77441406 111.88916016 C200.7197225 98.33563513 178.24220077 87.20234527 154.875 78.25 C153.80233887 77.8379834 152.72967773 77.4259668 151.62451172 77.00146484 C137.86253982 71.77572993 123.97414266 67.24088491 109.8125 63.25 C109.14154297 63.06009491 108.47058594 62.87018982 107.77929688 62.67453003 C100.51510602 60.63136453 93.31129838 58.82069948 85.85375977 57.64453125 C83.875 57.25 83.875 57.25 82.875 56.25 C81.42680904 55.95739527 79.96709051 55.72148056 78.50488281 55.50976562 C77.57170227 55.37292358 76.63852173 55.23608154 75.67706299 55.09509277 C74.65441345 54.95027466 73.63176392 54.80545654 72.578125 54.65625 C71.51954285 54.50466431 70.46096069 54.35307861 69.37030029 54.19689941 C67.11079868 53.87523123 64.85095887 53.55593143 62.59082031 53.23876953 C59.20746399 52.76162954 55.82644635 52.2699494 52.4453125 51.77734375 C38.91332393 49.84533306 25.54053375 48.57168114 11.875 48.25 C10.06225586 48.19996826 10.06225586 48.19996826 8.21289062 48.14892578 C-91.68015774 46.06401603 -191.79198008 78.25338312 -288.61328125 156.984375 C-289.99825166 158.23364846 -291.38976655 159.47620197 -292.80786133 160.68774414 C-298.37039231 165.45471782 -303.57734987 170.54915507 -308.7434082 175.73803711 C-310.18525221 177.18524385 -311.63237116 178.62702026 -313.08007812 180.06835938 C-318.30715735 185.29096168 -323.36182487 190.59966051 -328.125 196.25 C-328.66020264 196.87849854 -329.19540527 197.50699707 -329.74682617 198.15454102 C-355.02153463 228.00402841 -376.42513171 260.85404661 -393.125 296.25 C-393.5487793 297.14541504 -393.97255859 298.04083008 -394.40917969 298.96337891 C-408.24421184 328.33256718 -419.10655591 358.49576121 -426.125 390.25 C-426.37878418 391.39710449 -426.63256836 392.54420898 -426.89404297 393.72607422 C-430.63569001 410.9996643 -433.15590626 428.17434321 -434.83251953 445.76074219 C-434.90598602 446.50582031 -434.97945251 447.25089844 -435.05514526 448.01855469 C-435.25311192 450.04385946 -435.43992181 452.07024591 -435.62597656 454.09667969 C-436.125 457.25 -436.125 457.25 -438.125 460.25 C-448.74675003 462.35154257 -458.69663942 458.48253444 -467.4921875 452.69140625 C-471.02956675 449.86590623 -472.76834627 447.63891681 -474.125 443.25 C-474.29200545 440.34092343 -474.11338935 437.47871415 -473.9140625 434.57421875 C-473.86238922 433.73686691 -473.81071594 432.89951508 -473.75747681 432.03678894 C-473.1585086 423.30040978 -471.92413204 414.69724214 -470.5 406.0625 C-470.36905945 405.25317017 -470.2381189 404.44384033 -470.10321045 403.60998535 C-465.93777111 377.95177979 -460.35030118 352.94494358 -452.125 328.25 C-451.77179688 327.17024902 -451.41859375 326.09049805 -451.0546875 324.97802734 C-445.92205744 309.33319857 -440.0315961 294.19558462 -433.125 279.25 C-432.65690918 278.23550781 -432.18881836 277.22101563 -431.70654297 276.17578125 C-410.72440374 230.99859081 -383.75067863 189.99329121 -350.125 153.25 C-349.21351122 152.24481927 -348.3020545 151.23960948 -347.390625 150.234375 C-338.08854912 140.02002513 -328.58310793 129.80448582 -318.0234375 120.87109375 C-315.79599967 118.9690635 -313.65477029 116.9839228 -311.5 115 C-305.9057029 109.95917218 -300.02694921 105.33910288 -294.06396484 100.74755859 C-292.06252306 99.20174596 -290.07200943 97.64256558 -288.08203125 96.08203125 C-257.99164655 72.60906332 -224.59253795 53.89251052 -189.875 38.1875 C-188.72225586 37.66333496 -187.56951172 37.13916992 -186.38183594 36.59912109 C-179.18387448 33.40152137 -171.94598455 30.7557144 -164.46166992 28.3371582 C-161.94265333 27.51640889 -159.47243506 26.6597002 -157.00390625 25.703125 C-126.28081337 13.93157237 -93.65202607 7.5073742 -61.125 3.25 C-59.88814453 3.08483887 -58.65128906 2.91967773 -57.37695312 2.74951172 C-38.25476698 0.31261741 -19.25719949 -0.01084138 0 0 Z " fill="#FCC405" transform="translate(635.125,113.75)"/>
<path d="M0 0 C9.02917477 2.23180355 18.04180231 4.49474132 27 7 C26.25 8.9375 26.25 8.9375 25 11 C22.49029246 12.063214 21.32558699 12.11062618 18.72583008 11.22729492 C17.91525146 10.81584229 17.10467285 10.40438965 16.26953125 9.98046875 C15.38458984 9.53509766 14.49964844 9.08972656 13.58789062 8.63085938 C12.67201172 8.15455078 11.75613281 7.67824219 10.8125 7.1875 C9.88501953 6.72279297 8.95753906 6.25808594 8.00195312 5.77929688 C1.14037187 2.28074374 1.14037187 2.28074374 0 0 Z " fill="#FEF7DD" transform="translate(290,698)"/>
<path d="M0 0 C0.66 0.33 1.32 0.66 2 1 C-2.79077028 5.9255107 -7.77674023 10.53648711 -13 15 C-14.32 14.01 -15.64 13.02 -17 12 C-15.94039062 11.30132812 -14.88078125 10.60265625 -13.7890625 9.8828125 C-12.40096066 8.96366399 -11.01294426 8.04438644 -9.625 7.125 C-8.92632813 6.66480469 -8.22765625 6.20460938 -7.5078125 5.73046875 C-6.50234375 5.06337891 -6.50234375 5.06337891 -5.4765625 4.3828125 C-4.85861816 3.97434082 -4.24067383 3.56586914 -3.60400391 3.14501953 C-1.84857985 1.95836857 -1.84857985 1.95836857 0 0 Z " fill="#FEF9E6" transform="translate(968,457)"/>
<path d="M0 0 C3.3 0.33 6.6 0.66 10 1 C8 5 8 5 6.125 5.875 C3.52613603 6.02787435 2.1980747 5.33454536 0 4 C0 2.68 0 1.36 0 0 Z " fill="#FEF8E3" transform="translate(307,704)"/>
<path d="M0 0 C0.66 0.66 1.32 1.32 2 2 C0.23977508 3.53309913 -1.53353463 5.05118701 -3.3125 6.5625 C-4.79169922 7.83287109 -4.79169922 7.83287109 -6.30078125 9.12890625 C-7.19152344 9.74636719 -8.08226562 10.36382813 -9 11 C-9.99 10.67 -10.98 10.34 -12 10 C-8.04 6.7 -4.08 3.4 0 0 Z " fill="#FCC713" transform="translate(909,982)"/>
<path d="M0 0 C7.48291572 6.15034169 7.48291572 6.15034169 10 10 C7 10 7 10 5.17578125 8.57421875 C4.56089844 7.95160156 3.94601562 7.32898438 3.3125 6.6875 C2.37857422 5.76517578 2.37857422 5.76517578 1.42578125 4.82421875 C0 3 0 3 0 0 Z " fill="#FEFBED" transform="translate(297,984)"/>
<path d="M0 0 C5.94 1.485 5.94 1.485 12 3 C11.01 3.66 10.02 4.32 9 5 C4.77694943 4.03221758 3.12148941 3.12148941 0 0 Z " fill="#FDECB2" transform="translate(290,698)"/>
<path d="M0 0 C2.09350689 3.4019487 2.17942163 6.05272412 2 10 C0.35 10 -1.3 10 -3 10 C-2.34 9.67 -1.68 9.34 -1 9 C-1 8.34 -1 7.68 -1 7 C-0.34 7 0.32 7 1 7 C1 6.34 1 5.68 1 5 C0.34 5 -0.32 5 -1 5 C-0.67 3.35 -0.34 1.7 0 0 Z " fill="#FBC824" transform="translate(510,930)"/>
<path d="M0 0 C0.33 0 0.66 0 1 0 C1.08078641 2.12438339 1.13909141 4.2496323 1.1875 6.375 C1.22230469 7.55835938 1.25710938 8.74171875 1.29296875 9.9609375 C1.19628906 10.96382812 1.09960938 11.96671875 1 13 C0.01 13.66 -0.98 14.32 -2 15 C-1.47462276 9.9697924 -0.89405214 4.98114761 0 0 Z " fill="#FDEAB1" transform="translate(1101,734)"/>
<path d="M0 0 C0.66 0.33 1.32 0.66 2 1 C-0.31 3.31 -2.62 5.62 -5 8 C-5.99 7.34 -6.98 6.68 -8 6 C-5.36 4.02 -2.72 2.04 0 0 Z " fill="#FDEDB1" transform="translate(968,457)"/>
<path d="M0 0 C0.66 0.33 1.32 0.66 2 1 C2 1.66 2 2.32 2 3 C0.03852126 4.38938077 -1.96166576 5.7260411 -4 7 C-4 4 -4 4 -2 1.8125 C-1.34 1.214375 -0.68 0.61625 0 0 Z " fill="#FBC715" transform="translate(922,970)"/>
<path d="M0 0 C4.75 0.75 4.75 0.75 7 3 C5.35 3 3.7 3 2 3 C1.67 3.66 1.34 4.32 1 5 C0.67 3.35 0.34 1.7 0 0 Z " fill="#FED130" transform="translate(237,905)"/>
<path d="M0 0 C0.66 0.66 1.32 1.32 2 2 C0.68 4.31 -0.64 6.62 -2 9 C-2.6875 7.3125 -2.6875 7.3125 -3 5 C-1.5625 2.25 -1.5625 2.25 0 0 Z " fill="#FDC618" transform="translate(683,700)"/>
<path d="M0 0 C0.66 0 1.32 0 2 0 C2.33 1.32 2.66 2.64 3 4 C1.02 4.66 -0.96 5.32 -3 6 C-1.125 1.125 -1.125 1.125 0 0 Z " fill="#FDCD2A" transform="translate(1060,231)"/>
</svg>
